<svg width="12" height="16" viewBox="0 0 12 16" fill="none" xmlns="http://www.w3.org/2000/svg">
<path d="M6.00002 12.19C6.30242 12.1948 6.59939 12.1094 6.85315 11.9449C7.10691 11.7804 7.30597 11.5441 7.42501 11.266C7.54405 10.988 7.57767 10.6809 7.52161 10.3837C7.46554 10.0865 7.32232 9.81269 7.11017 9.59714C6.89802 9.3816 6.62654 9.23405 6.33028 9.17328C6.03401 9.1125 5.72637 9.14125 5.44649 9.25586C5.16662 9.37047 4.92717 9.56576 4.75862 9.81687C4.59008 10.068 4.50006 10.3636 4.50002 10.666C4.49788 11.0667 4.65447 11.4519 4.93555 11.7375C5.21663 12.0231 5.59934 12.1858 6.00002 12.19ZM10.5 5.333H9.75002V3.81C9.75774 2.80755 9.36705 1.84307 8.66384 1.12861C7.96063 0.414143 7.00247 0.00818946 6.00002 0C4.99766 0.00845368 4.03965 0.414491 3.3365 1.1289C2.63335 1.8433 2.24256 2.80763 2.25002 3.81V5.333H1.50002C1.09934 5.33722 0.716633 5.49991 0.435552 5.78548C0.154472 6.07106 -0.00211519 6.45631 2.15847e-05 6.857V14.476C-0.00211519 14.8767 0.154472 15.2619 0.435552 15.5475C0.716633 15.8331 1.09934 15.9958 1.50002 16H10.5C10.9007 15.9958 11.2834 15.8331 11.5645 15.5475C11.8456 15.2619 12.0022 14.8767 12 14.476V6.857C12.0022 6.45631 11.8456 6.07106 11.5645 5.78548C11.2834 5.49991 10.9007 5.33722 10.5 5.333ZM3.67502 3.81C3.67502 3.50468 3.73516 3.20234 3.852 2.92026C3.96884 2.63818 4.1401 2.38187 4.356 2.16598C4.57189 1.95008 4.8282 1.77882 5.11028 1.66198C5.39236 1.54514 5.6947 1.485 6.00002 1.485C6.30534 1.485 6.60768 1.54514 6.88976 1.66198C7.17184 1.77882 7.42815 1.95008 7.64404 2.16598C7.85994 2.38187 8.0312 2.63818 8.14804 2.92026C8.26488 3.20234 8.32502 3.50468 8.32502 3.81V5.333H3.67502V3.81ZM10.5 14.476H1.50002V6.857H10.5V14.476Z" fill="#96AAB8"/>
</svg>
